<?xml version="1.0" encoding="UTF-8" standalone="no"?>
<svg
   width="18"
   height="18"
   viewBox="0 0 18 18"
   fill="none"
   class="w-5 h-5"
   version="1.1"
   id="svg13"
   xmlns="http://www.w3.org/2000/svg"
   xmlns:svg="http://www.w3.org/2000/svg">
  <defs
     id="defs17" />
  <path
     d="M 8.59941,5.02012 9.9916,3.62793 c 0.5894,-0.53724 1.3632,-0.82671 2.1605,-0.80825 0.7974,0.01846 1.5569,0.34342 2.1209,0.90737 0.5639,0.56394 0.8889,1.32349 0.9073,2.12081 0.0185,0.79732 -0.271,1.5711 -0.8082,2.16054 l -1.9899,1.98281 c -0.2868,0.28789 -0.6275,0.51629 -1.0028,0.67209 -0.3752,0.1559 -0.7776,0.2361 -1.1839,0.2361 -0.40632,0 -0.80864,-0.0802 -1.18389,-0.2361 C 8.63636,10.5075 8.29557,10.2791 8.00879,9.99121"
     stroke="currentColor"
     stroke-width="1.5"
     stroke-linecap="round"
     stroke-linejoin="round"
     id="path9" />
  <path
     d="M 9.40107,12.9798 8.00889,14.372 C 7.41945,14.9093 6.64567,15.1987 5.84835,15.1803 5.05103,15.1618 4.29148,14.8369 3.72753,14.2729 3.16359,13.709 2.83863,12.9494 2.82017,12.1521 2.80171,11.3548 3.09118,10.581 3.62842,9.99156 L 5.61826,8.00875 C 5.90504,7.7209 6.24583,7.4925 6.62108,7.33665 6.99633,7.18081 7.39865,7.10059 7.80498,7.10059 c 0.40632,0 0.80865,0.08022 1.1839,0.23606 0.37525,0.15585 0.71604,0.38425 1.00282,0.6721"
     stroke="currentColor"
     stroke-width="1.5"
     stroke-linecap="round"
     stroke-linejoin="round"
     id="path11" />
</svg>
